# MagicaVoxel @ Ephtracy

# group
o 

# material
mtllib voxel rock 2.mtl
usemtl palette

# normals
vn -1 0 0
vn 1 0 0
vn 0 0 1
vn 0 0 -1
vn 0 -1 0
vn 0 1 0

# texcoords
vt 0.537109 0.5
vt 0.865234 0.5
vt 0.869141 0.5

# verts
v -0.3 0 0.2
v -0.3 0 -0.3
v -0.3 0.1 0.2
v -0.3 0.1 -0.1
v -0.3 0.1 -0.2
v -0.3 0.1 -0.3
v -0.3 0.2 0.2
v -0.3 0.2 0
v -0.3 0.2 -0.2
v -0.3 0.2 -0.3
v -0.3 0.3 -0.2
v -0.3 0.3 -0.3
v -0.3 0.4 0.2
v -0.3 0.4 0
v -0.3 0.5 -0.1
v -0.3 0.5 -0.2
v -0.2 0 0.3
v -0.2 0 0.2
v -0.2 0 -0.3
v -0.2 0 -0.4
v -0.2 0.1 0.3
v -0.2 0.1 0.2
v -0.2 0.1 -0.1
v -0.2 0.1 -0.2
v -0.2 0.1 -0.3
v -0.2 0.1 -0.4
v -0.2 0.2 0.2
v -0.2 0.2 0
v -0.2 0.2 -0.2
v -0.2 0.2 -0.3
v -0.2 0.3 0
v -0.2 0.3 -0.1
v -0.2 0.3 -0.2
v -0.2 0.3 -0.3
v -0.2 0.4 0.2
v -0.2 0.4 0
v -0.2 0.5 0.2
v -0.2 0.5 0
v -0.2 0.5 -0.2
v -0.2 0.5 -0.3
v -0.1 0.1 -0.3
v -0.1 0.1 -0.4
v -0.1 0.2 0.3
v -0.1 0.2 0.2
v -0.1 0.3 0.3
v -0.1 0.3 0.2
v -0.1 0.3 0
v -0.1 0.3 -0.1
v -0.1 0.3 -0.3
v -0.1 0.3 -0.4
v -0.1 0.4 0
v -0.1 0.4 -0.1
v -0.1 0.5 0.2
v -0.1 0.5 0.1
v -0.1 0.6 0.2
v -0.1 0.6 0.1
v 0 0.4 0
v 0 0.4 -0.1
v 0 0.4 -0.2
v 0 0.4 -0.3
v 0 0.5 0.1
v 0 0.5 0
v 0 0.5 -0.1
v 0 0.5 -0.2
v 0 0.6 0.1
v 0 0.6 0
v 0 0.6 -0.1
v 0 0.6 -0.2
v 0 0.6 -0.3
v 0 0.7 0
v 0 0.7 -0.1
v 0.1 0.2 0.3
v 0.1 0.2 0.2
v 0.1 0.3 0.3
v 0.1 0.3 0.2
v 0.2 0.1 0.3
v 0.2 0.1 0.2
v 0.2 0.2 0.3
v 0.2 0.2 0.2
v 0.2 0.3 -0.3
v 0.2 0.3 -0.4
v 0.2 0.4 -0.3
v 0.2 0.4 -0.4
v -0.1 0.4 0.1
v -0.1 0.4 0
v -0.1 0.4 -0.2
v -0.1 0.4 -0.3
v -0.1 0.5 0.1
v -0.1 0.5 0
v -0.1 0.5 -0.2
v -0.1 0.5 -0.3
v 0 0.2 0.3
v 0 0.2 0.2
v 0 0.3 0.3
v 0 0.3 0.2
v 0.1 0.3 0.2
v 0.1 0.3 0.1
v 0.1 0.3 -0.2
v 0.1 0.3 -0.3
v 0.1 0.4 0.1
v 0.1 0.4 0
v 0.1 0.4 -0.1
v 0.1 0.4 -0.2
v 0.1 0.4 -0.3
v 0.1 0.5 0.1
v 0.1 0.5 0
v 0.1 0.5 -0.1
v 0.1 0.5 -0.2
v 0.1 0.6 0.2
v 0.1 0.6 0
v 0.1 0.6 -0.1
v 0.1 0.6 -0.2
v 0.1 0.6 -0.3
v 0.1 0.7 0
v 0.1 0.7 -0.1
v 0.2 0.2 0.3
v 0.2 0.2 0.2
v 0.2 0.3 0.3
v 0.2 0.3 0.2
v 0.2 0.3 0.1
v 0.2 0.3 0
v 0.2 0.4 0.1
v 0.2 0.4 0
v 0.3 0 0.3
v 0.3 0 0.2
v 0.3 0 -0.3
v 0.3 0 -0.4
v 0.3 0.1 0.2
v 0.3 0.1 0.1
v 0.3 0.1 0
v 0.3 0.1 -0.1
v 0.3 0.1 -0.3
v 0.3 0.1 -0.4
v 0.3 0.2 0.3
v 0.3 0.2 0.2
v 0.3 0.2 0.1
v 0.3 0.2 0
v 0.3 0.2 -0.1
v 0.3 0.2 -0.2
v 0.3 0.2 -0.3
v 0.3 0.2 -0.4
v 0.3 0.3 0.1
v 0.3 0.3 0
v 0.3 0.3 -0.1
v 0.3 0.3 -0.2
v 0.3 0.3 -0.3
v 0.3 0.3 -0.4
v 0.3 0.4 -0.1
v 0.3 0.4 -0.2
v 0.3 0.4 -0.3
v 0.3 0.4 -0.4
v 0.4 0 0.2
v 0.4 0 0.1
v 0.4 0 0
v 0.4 0 -0.1
v 0.4 0 -0.3
v 0.4 0.1 0.2
v 0.4 0.1 0.1
v 0.4 0.1 0
v 0.4 0.1 -0.1
v 0.4 0.1 -0.3
v 0.4 0.1 -0.4
v 0.4 0.2 0.2
v 0.4 0.2 0.1
v 0.4 0.2 0
v 0.4 0.2 -0.1
v 0.4 0.2 -0.3
v 0.4 0.2 -0.4
v 0.4 0.3 0.2
v 0.4 0.3 0.1
v 0.4 0.4 0
v 0.4 0.4 -0.1
v -0.2 0 0.3
v -0.2 0.1 0.3
v -0.1 0.2 0.3
v -0.1 0.3 0.3
v 0 0.2 0.3
v 0 0.3 0.3
v 0.1 0.2 0.3
v 0.1 0.3 0.3
v 0.2 0.1 0.3
v 0.2 0.2 0.3
v 0.2 0.3 0.3
v 0.3 0 0.3
v 0.3 0.2 0.3
v -0.3 0 0.2
v -0.3 0.1 0.2
v -0.3 0.2 0.2
v -0.3 0.4 0.2
v -0.2 0 0.2
v -0.2 0.1 0.2
v -0.2 0.2 0.2
v -0.2 0.4 0.2
v -0.2 0.5 0.2
v -0.1 0.2 0.2
v -0.1 0.3 0.2
v -0.1 0.5 0.2
v -0.1 0.6 0.2
v 0 0.2 0.2
v 0 0.3 0.2
v 0.1 0.1 0.2
v 0.1 0.2 0.2
v 0.1 0.3 0.2
v 0.1 0.6 0.2
v 0.2 0.1 0.2
v 0.2 0.2 0.2
v 0.2 0.3 0.2
v 0.3 0 0.2
v 0.3 0.1 0.2
v 0.3 0.2 0.2
v 0.4 0 0.2
v 0.4 0.1 0.2
v 0.4 0.2 0.2
v 0.4 0.3 0.2
v 0.1 0.3 0.1
v 0.1 0.4 0.1
v 0.2 0.3 0.1
v 0.2 0.4 0.1
v 0 0.4 0
v 0 0.5 0
v 0 0.6 0
v 0 0.7 0
v 0.1 0.4 0
v 0.1 0.5 0
v 0.1 0.6 0
v 0.1 0.7 0
v 0.2 0.3 0
v 0.2 0.4 0
v 0.3 0.1 0
v 0.3 0.2 0
v 0.3 0.3 0
v 0.4 0.1 0
v 0.4 0.2 0
v 0.4 0.4 0
v -0.3 0.1 -0.1
v -0.3 0.5 -0.1
v -0.2 0.1 -0.1
v -0.2 0.3 -0.1
v -0.1 0.3 -0.1
v -0.1 0.4 -0.1
v 0 0.4 -0.1
v 0 0.5 -0.1
v 0.2 0.3 -0.3
v 0.2 0.4 -0.3
v 0.3 0.1 -0.3
v 0.3 0.2 -0.3
v 0.3 0.3 -0.3
v 0.3 0.4 -0.3
v 0.4 0.1 -0.3
v 0.4 0.2 -0.3
v -0.1 0.4 0.1
v -0.1 0.5 0.1
v -0.1 0.6 0.1
v 0 0.5 0.1
v 0 0.6 0.1
v 0.1 0.4 0.1
v 0.1 0.5 0.1
v 0.3 0.2 0.1
v 0.3 0.3 0.1
v 0.4 0.2 0.1
v 0.4 0.3 0.1
v -0.3 0.2 0
v -0.3 0.4 0
v -0.2 0.2 0
v -0.2 0.3 0
v -0.2 0.4 0
v -0.2 0.5 0
v -0.1 0.3 0
v -0.1 0.4 0
v -0.1 0.5 0
v 0 0.6 -0.1
v 0 0.7 -0.1
v 0.1 0.6 -0.1
v 0.1 0.7 -0.1
v 0.3 0.1 -0.1
v 0.3 0.2 -0.1
v 0.3 0.3 -0.1
v 0.3 0.4 -0.1
v 0.4 0.1 -0.1
v 0.4 0.2 -0.1
v 0.4 0.4 -0.1
v -0.3 0.1 -0.2
v -0.3 0.2 -0.2
v -0.3 0.3 -0.2
v -0.3 0.5 -0.2
v -0.2 0.1 -0.2
v -0.2 0.2 -0.2
v -0.2 0.3 -0.2
v -0.2 0.5 -0.2
v -0.1 0.4 -0.2
v -0.1 0.5 -0.2
v 0 0.4 -0.2
v 0 0.5 -0.2
v 0.1 0.3 -0.2
v 0.1 0.4 -0.2
v 0.3 0.3 -0.2
v 0.3 0.4 -0.2
v -0.3 0 -0.3
v -0.3 0.1 -0.3
v -0.3 0.2 -0.3
v -0.3 0.3 -0.3
v -0.2 0 -0.3
v -0.2 0.1 -0.3
v -0.2 0.2 -0.3
v -0.2 0.3 -0.3
v -0.2 0.5 -0.3
v -0.1 0.1 -0.3
v -0.1 0.3 -0.3
v -0.1 0.4 -0.3
v -0.1 0.5 -0.3
v 0 0.4 -0.3
v 0 0.6 -0.3
v 0.1 0.3 -0.3
v 0.1 0.4 -0.3
v 0.1 0.6 -0.3
v 0.3 0 -0.3
v 0.3 0.1 -0.3
v 0.4 0 -0.3
v 0.4 0.1 -0.3
v -0.2 0 -0.4
v -0.2 0.1 -0.4
v -0.1 0.1 -0.4
v -0.1 0.3 -0.4
v 0.2 0.3 -0.4
v 0.2 0.4 -0.4
v 0.3 0 -0.4
v 0.3 0.1 -0.4
v 0.3 0.2 -0.4
v 0.3 0.3 -0.4
v 0.3 0.4 -0.4
v 0.4 0.1 -0.4
v 0.4 0.2 -0.4
v -0.2 0 0.3
v 0.3 0 0.3
v -0.3 0 0.2
v -0.2 0 0.2
v 0.3 0 0.2
v 0.4 0 0.2
v 0.3 0 0.1
v 0.4 0 0.1
v 0.3 0 0
v 0.4 0 0
v 0.3 0 -0.1
v 0.4 0 -0.1
v -0.3 0 -0.3
v -0.2 0 -0.3
v 0.3 0 -0.3
v 0.4 0 -0.3
v -0.2 0 -0.4
v 0.3 0 -0.4
v 0.3 0.1 -0.3
v 0.4 0.1 -0.3
v 0.3 0.1 -0.4
v 0.4 0.1 -0.4
v -0.1 0.2 0.3
v 0 0.2 0.3
v 0.1 0.2 0.3
v 0.2 0.2 0.3
v -0.3 0.2 0.2
v -0.2 0.2 0.2
v -0.1 0.2 0.2
v 0 0.2 0.2
v 0.1 0.2 0.2
v 0.2 0.2 0.2
v 0.3 0.2 0.2
v 0.4 0.2 0.2
v 0.3 0.2 0.1
v 0.4 0.2 0.1
v -0.3 0.2 0
v -0.2 0.2 0
v -0.3 0.2 -0.2
v -0.2 0.2 -0.2
v -0.3 0.2 -0.3
v -0.2 0.2 -0.3
v 0 0.5 0.1
v 0.1 0.5 0.1
v 0 0.5 0
v 0.1 0.5 0
v -0.2 0.1 0.3
v 0.2 0.1 0.3
v -0.3 0.1 0.2
v -0.2 0.1 0.2
v 0.1 0.1 0.2
v 0.2 0.1 0.2
v 0.3 0.1 0.2
v 0.4 0.1 0.2
v 0.3 0.1 0.1
v 0.4 0.1 0.1
v 0.3 0.1 0
v 0.4 0.1 0
v -0.3 0.1 -0.1
v -0.2 0.1 -0.1
v 0.3 0.1 -0.1
v 0.4 0.1 -0.1
v -0.3 0.1 -0.2
v -0.2 0.1 -0.2
v -0.3 0.1 -0.3
v -0.2 0.1 -0.3
v -0.1 0.1 -0.3
v 0.3 0.1 -0.3
v 0.4 0.1 -0.3
v -0.2 0.1 -0.4
v -0.1 0.1 -0.4
v 0.2 0.2 0.3
v 0.3 0.2 0.3
v 0.2 0.2 0.2
v 0.3 0.2 0.2
v 0.3 0.2 -0.3
v 0.4 0.2 -0.3
v 0.3 0.2 -0.4
v 0.4 0.2 -0.4
v -0.1 0.3 0.3
v 0 0.3 0.3
v 0.1 0.3 0.3
v 0.2 0.3 0.3
v -0.1 0.3 0.2
v 0 0.3 0.2
v 0.1 0.3 0.2
v 0.2 0.3 0.2
v 0.4 0.3 0.2
v 0.1 0.3 0.1
v 0.2 0.3 0.1
v 0.3 0.3 0.1
v 0.4 0.3 0.1
v -0.2 0.3 0
v -0.1 0.3 0
v 0.2 0.3 0
v 0.3 0.3 0
v -0.2 0.3 -0.1
v -0.1 0.3 -0.1
v -0.3 0.3 -0.2
v -0.2 0.3 -0.2
v 0.1 0.3 -0.2
v 0.3 0.3 -0.2
v -0.3 0.3 -0.3
v -0.2 0.3 -0.3
v -0.1 0.3 -0.3
v 0.1 0.3 -0.3
v 0.2 0.3 -0.3
v 0.3 0.3 -0.3
v -0.1 0.3 -0.4
v 0.2 0.3 -0.4
v -0.3 0.4 0.2
v -0.2 0.4 0.2
v -0.1 0.4 0.1
v 0.1 0.4 0.1
v 0.2 0.4 0.1
v -0.3 0.4 0
v -0.2 0.4 0
v -0.1 0.4 0
v 0 0.4 0
v 0.1 0.4 0
v 0.2 0.4 0
v 0.4 0.4 0
v -0.1 0.4 -0.1
v 0 0.4 -0.1
v 0.1 0.4 -0.1
v 0.3 0.4 -0.1
v 0.4 0.4 -0.1
v -0.1 0.4 -0.2
v 0 0.4 -0.2
v 0.1 0.4 -0.2
v 0.3 0.4 -0.2
v -0.1 0.4 -0.3
v 0 0.4 -0.3
v 0.2 0.4 -0.3
v 0.3 0.4 -0.3
v 0.2 0.4 -0.4
v 0.3 0.4 -0.4
v -0.2 0.5 0.2
v -0.1 0.5 0.2
v -0.1 0.5 0.1
v -0.2 0.5 0
v -0.1 0.5 0
v -0.3 0.5 -0.1
v 0 0.5 -0.1
v -0.3 0.5 -0.2
v -0.2 0.5 -0.2
v -0.1 0.5 -0.2
v 0 0.5 -0.2
v -0.2 0.5 -0.3
v -0.1 0.5 -0.3
v -0.1 0.6 0.2
v 0.1 0.6 0.2
v -0.1 0.6 0.1
v 0 0.6 0.1
v 0 0.6 0
v 0.1 0.6 0
v 0 0.6 -0.1
v 0.1 0.6 -0.1
v 0 0.6 -0.2
v 0.1 0.6 -0.2
v 0 0.6 -0.3
v 0.1 0.6 -0.3
v 0 0.7 0
v 0.1 0.7 0
v 0 0.7 -0.1
v 0.1 0.7 -0.1

# faces
f 3/3/1 2/3/1 1/3/1
f 4/3/1 2/3/1 3/3/1
f 5/3/1 2/3/1 4/3/1
f 6/3/1 2/3/1 5/3/1
f 9/3/1 5/3/1 4/3/1
f 11/3/1 9/3/1 4/3/1
f 11/3/1 10/3/1 9/3/1
f 12/3/1 10/3/1 11/3/1
f 13/3/1 8/3/1 7/3/1
f 14/3/1 8/3/1 13/3/1
f 15/3/1 11/3/1 4/3/1
f 16/3/1 11/3/1 15/3/1
f 21/3/1 18/3/1 17/3/1
f 22/3/1 18/3/1 21/3/1
f 25/3/1 20/3/1 19/3/1
f 26/3/1 20/3/1 25/3/1
f 27/3/1 23/3/1 22/3/1
f 28/3/1 23/3/1 27/3/1
f 29/3/1 25/3/1 24/3/1
f 30/3/1 25/3/1 29/3/1
f 31/3/1 23/3/1 28/3/1
f 32/3/1 23/3/1 31/3/1
f 37/3/1 36/3/1 35/3/1
f 38/3/1 36/3/1 37/3/1
f 39/3/1 34/3/1 33/3/1
f 40/3/1 34/3/1 39/3/1
f 45/3/1 44/3/1 43/3/1
f 46/3/1 44/3/1 45/3/1
f 49/3/1 42/3/1 41/3/1
f 50/3/1 42/3/1 49/3/1
f 51/3/1 48/3/1 47/3/1
f 52/3/1 48/3/1 51/3/1
f 55/3/1 54/3/1 53/3/1
f 56/3/1 54/3/1 55/3/1
f 62/3/1 58/3/1 57/3/1
f 63/3/1 58/3/1 62/3/1
f 64/2/1 60/2/1 59/2/1
f 65/3/1 63/3/1 62/3/1
f 65/3/1 64/3/1 63/3/1
f 65/3/1 62/3/1 61/3/1
f 66/3/1 64/3/1 65/3/1
f 67/3/1 64/3/1 66/3/1
f 68/2/1 60/2/1 64/2/1
f 68/3/1 64/3/1 67/3/1
f 69/2/1 60/2/1 68/2/1
f 70/3/1 67/3/1 66/3/1
f 71/3/1 67/3/1 70/3/1
f 74/3/1 73/3/1 72/3/1
f 75/3/1 73/3/1 74/3/1
f 78/3/1 77/3/1 76/3/1
f 79/3/1 77/3/1 78/3/1
f 82/2/1 81/2/1 80/2/1
f 83/2/1 81/2/1 82/2/1
f 84/3/2 85/3/2 88/3/2
f 88/3/2 85/3/2 89/3/2
f 86/3/2 87/3/2 90/3/2
f 90/3/2 87/3/2 91/3/2
f 92/3/2 93/3/2 94/3/2
f 94/3/2 93/3/2 95/3/2
f 96/3/2 97/3/2 100/3/2
f 98/3/2 99/3/2 103/3/2
f 103/3/2 99/3/2 104/3/2
f 96/3/2 100/3/2 105/3/2
f 101/3/2 102/3/2 106/3/2
f 102/2/2 103/2/2 107/2/2
f 103/2/2 104/2/2 107/2/2
f 106/3/2 102/3/2 107/3/2
f 107/2/2 104/2/2 108/2/2
f 96/3/2 105/3/2 109/3/2
f 105/3/2 106/3/2 109/3/2
f 107/3/2 108/3/2 109/3/2
f 106/3/2 107/3/2 109/3/2
f 109/3/2 108/3/2 110/3/2
f 110/3/2 108/3/2 111/3/2
f 108/2/2 104/2/2 112/2/2
f 111/3/2 108/3/2 112/3/2
f 112/2/2 104/2/2 113/2/2
f 110/3/2 111/3/2 114/3/2
f 114/3/2 111/3/2 115/3/2
f 116/3/2 117/3/2 118/3/2
f 118/3/2 117/3/2 119/3/2
f 120/3/2 121/3/2 122/3/2
f 122/3/2 121/3/2 123/3/2
f 124/3/2 125/3/2 128/3/2
f 126/3/2 127/3/2 132/3/2
f 132/3/2 127/3/2 133/3/2
f 124/3/2 128/3/2 134/3/2
f 129/2/2 130/2/2 135/2/2
f 134/3/2 128/3/2 135/3/2
f 128/2/2 129/2/2 135/2/2
f 135/2/2 130/2/2 136/2/2
f 136/2/2 130/2/2 137/2/2
f 131/2/2 132/2/2 138/2/2
f 138/2/2 132/2/2 139/2/2
f 139/2/2 132/2/2 140/2/2
f 136/3/2 137/3/2 142/3/2
f 142/3/2 137/3/2 143/3/2
f 138/2/2 139/2/2 144/2/2
f 140/3/2 141/3/2 145/3/2
f 144/2/2 139/2/2 145/2/2
f 139/3/2 140/3/2 145/3/2
f 145/3/2 141/3/2 146/3/2
f 146/3/2 141/3/2 147/3/2
f 144/3/2 145/3/2 148/3/2
f 148/3/2 145/3/2 149/3/2
f 146/2/2 147/2/2 150/2/2
f 150/2/2 147/2/2 151/2/2
f 152/2/2 153/2/2 157/2/2
f 153/3/2 154/3/2 158/3/2
f 157/2/2 153/2/2 158/2/2
f 154/2/2 155/2/2 159/2/2
f 158/3/2 154/3/2 159/3/2
f 155/3/2 156/3/2 160/3/2
f 159/2/2 155/2/2 160/2/2
f 160/3/2 156/3/2 161/3/2
f 159/2/2 160/2/2 165/2/2
f 165/2/2 160/2/2 166/2/2
f 161/3/2 162/3/2 167/3/2
f 167/3/2 162/3/2 168/3/2
f 163/3/2 164/3/2 169/3/2
f 169/3/2 164/3/2 170/3/2
f 165/3/2 166/3/2 171/3/2
f 171/3/2 166/3/2 172/3/2
f 177/3/3 176/3/3 175/3/3
f 178/3/3 176/3/3 177/3/3
f 181/3/3 174/3/3 173/3/3
f 182/3/3 180/3/3 179/3/3
f 183/3/3 180/3/3 182/3/3
f 184/3/3 181/3/3 173/3/3
f 184/3/3 182/3/3 181/3/3
f 185/3/3 182/3/3 184/3/3
f 190/3/3 187/3/3 186/3/3
f 191/3/3 187/3/3 190/3/3
f 192/3/3 189/3/3 188/3/3
f 193/3/3 189/3/3 192/3/3
f 195/3/3 194/3/3 193/3/3
f 195/3/3 193/3/3 192/3/3
f 195/3/3 192/3/3 191/3/3
f 196/3/3 194/3/3 195/3/3
f 197/3/3 194/3/3 196/3/3
f 199/3/3 195/3/3 191/3/3
f 200/3/3 198/3/3 197/3/3
f 200/3/3 197/3/3 196/3/3
f 201/3/3 199/3/3 191/3/3
f 201/3/3 200/3/3 199/3/3
f 202/3/3 200/3/3 201/3/3
f 203/3/3 198/3/3 200/3/3
f 203/3/3 200/3/3 202/3/3
f 204/3/3 198/3/3 203/3/3
f 205/2/3 202/2/3 201/2/3
f 206/2/3 202/2/3 205/2/3
f 210/3/3 207/3/3 206/3/3
f 211/2/3 209/2/3 208/2/3
f 212/2/3 209/2/3 211/2/3
f 213/3/3 207/3/3 210/3/3
f 214/3/3 207/3/3 213/3/3
f 217/3/3 216/3/3 215/3/3
f 218/3/3 216/3/3 217/3/3
f 223/3/3 220/3/3 219/3/3
f 224/3/3 220/3/3 223/3/3
f 225/3/3 222/3/3 221/3/3
f 226/3/3 222/3/3 225/3/3
f 231/3/3 228/3/3 227/3/3
f 232/2/3 230/2/3 229/2/3
f 233/3/3 231/3/3 230/3/3
f 233/2/3 230/2/3 232/2/3
f 234/3/3 228/3/3 231/3/3
f 234/3/3 231/3/3 233/3/3
f 237/3/3 236/3/3 235/3/3
f 238/3/3 236/3/3 237/3/3
f 239/3/3 236/3/3 238/3/3
f 240/3/3 236/3/3 239/3/3
f 241/3/3 236/3/3 240/3/3
f 242/3/3 236/3/3 241/3/3
f 247/2/3 244/2/3 243/2/3
f 248/2/3 244/2/3 247/2/3
f 249/3/3 246/3/3 245/3/3
f 250/3/3 246/3/3 249/3/3
f 251/3/4 252/3/4 254/3/4
f 252/3/4 253/3/4 254/3/4
f 254/3/4 253/3/4 255/3/4
f 251/3/4 254/3/4 256/3/4
f 256/3/4 254/3/4 257/3/4
f 258/3/4 259/3/4 260/3/4
f 260/3/4 259/3/4 261/3/4
f 262/3/4 263/3/4 264/3/4
f 264/3/4 263/3/4 265/3/4
f 265/3/4 263/3/4 266/3/4
f 266/3/4 267/3/4 268/3/4
f 265/3/4 266/3/4 268/3/4
f 268/3/4 267/3/4 269/3/4
f 269/3/4 267/3/4 270/3/4
f 271/3/4 272/3/4 273/3/4
f 273/3/4 272/3/4 274/3/4
f 275/2/4 276/2/4 279/2/4
f 277/3/4 278/3/4 280/3/4
f 279/2/4 276/2/4 280/2/4
f 276/3/4 277/3/4 280/3/4
f 280/3/4 278/3/4 281/3/4
f 282/3/4 283/3/4 286/3/4
f 286/3/4 283/3/4 287/3/4
f 284/3/4 285/3/4 288/3/4
f 288/3/4 285/3/4 289/3/4
f 290/3/4 291/3/4 292/3/4
f 292/3/4 291/3/4 293/3/4
f 294/3/4 295/3/4 296/3/4
f 296/3/4 295/3/4 297/3/4
f 298/3/4 299/3/4 302/3/4
f 302/3/4 299/3/4 303/3/4
f 300/3/4 301/3/4 304/3/4
f 304/3/4 301/3/4 305/3/4
f 305/3/4 306/3/4 307/3/4
f 304/3/4 305/3/4 307/3/4
f 303/3/4 304/3/4 307/3/4
f 307/3/4 306/3/4 308/3/4
f 308/3/4 306/3/4 309/3/4
f 309/3/4 306/3/4 310/3/4
f 308/3/4 309/3/4 311/3/4
f 308/3/4 311/3/4 313/3/4
f 311/2/4 312/2/4 314/2/4
f 313/3/4 311/3/4 314/3/4
f 314/2/4 312/2/4 315/2/4
f 316/3/4 317/3/4 318/3/4
f 318/3/4 317/3/4 319/3/4
f 320/3/4 321/3/4 322/3/4
f 322/3/4 323/3/4 324/3/4
f 320/3/4 322/3/4 326/3/4
f 322/3/4 324/3/4 326/3/4
f 326/3/4 324/3/4 327/3/4
f 327/3/4 324/3/4 328/3/4
f 324/2/4 325/2/4 329/2/4
f 328/3/4 324/3/4 329/3/4
f 329/2/4 325/2/4 330/2/4
f 327/3/4 328/3/4 331/3/4
f 331/3/4 328/3/4 332/3/4
f 336/3/5 334/3/5 333/3/5
f 337/3/5 334/3/5 336/3/5
f 339/3/5 336/3/5 335/3/5
f 339/2/5 338/2/5 337/2/5
f 339/3/5 337/3/5 336/3/5
f 340/2/5 338/2/5 339/2/5
f 341/3/5 339/3/5 335/3/5
f 341/3/5 340/3/5 339/3/5
f 342/3/5 340/3/5 341/3/5
f 343/3/5 341/3/5 335/3/5
f 343/2/5 342/2/5 341/2/5
f 344/2/5 342/2/5 343/2/5
f 345/3/5 343/3/5 335/3/5
f 345/3/5 344/3/5 343/3/5
f 346/3/5 344/3/5 345/3/5
f 347/3/5 344/3/5 346/3/5
f 348/3/5 344/3/5 347/3/5
f 349/3/5 347/3/5 346/3/5
f 350/3/5 347/3/5 349/3/5
f 353/3/5 352/3/5 351/3/5
f 354/3/5 352/3/5 353/3/5
f 361/3/5 356/3/5 355/3/5
f 362/3/5 356/3/5 361/3/5
f 363/3/5 358/3/5 357/3/5
f 364/3/5 358/3/5 363/3/5
f 367/3/5 366/3/5 365/3/5
f 368/3/5 366/3/5 367/3/5
f 369/3/5 360/3/5 359/3/5
f 370/3/5 360/3/5 369/3/5
f 373/3/5 372/3/5 371/3/5
f 374/3/5 372/3/5 373/3/5
f 377/3/5 376/3/5 375/3/5
f 378/3/5 376/3/5 377/3/5
f 379/3/6 380/3/6 382/3/6
f 382/3/6 380/3/6 383/3/6
f 383/3/6 380/3/6 384/3/6
f 385/2/6 386/2/6 387/2/6
f 387/2/6 386/2/6 388/2/6
f 387/3/6 388/3/6 389/3/6
f 389/3/6 388/3/6 390/3/6
f 381/3/6 382/3/6 391/3/6
f 391/3/6 382/3/6 392/3/6
f 395/3/6 396/3/6 397/3/6
f 397/3/6 396/3/6 398/3/6
f 393/3/6 394/3/6 400/3/6
f 400/3/6 394/3/6 401/3/6
f 398/3/6 399/3/6 402/3/6
f 402/3/6 399/3/6 403/3/6
f 404/3/6 405/3/6 406/3/6
f 406/3/6 405/3/6 407/3/6
f 408/3/6 409/3/6 410/3/6
f 410/3/6 409/3/6 411/3/6
f 412/3/6 413/3/6 416/3/6
f 416/3/6 413/3/6 417/3/6
f 414/3/6 415/3/6 418/3/6
f 418/3/6 415/3/6 419/3/6
f 419/3/6 420/3/6 421/3/6
f 418/3/6 419/3/6 421/3/6
f 421/3/6 420/3/6 422/3/6
f 422/3/6 420/3/6 423/3/6
f 423/3/6 420/3/6 424/3/6
f 422/3/6 423/3/6 427/3/6
f 427/3/6 423/3/6 428/3/6
f 425/3/6 426/3/6 429/3/6
f 429/3/6 426/3/6 430/3/6
f 431/3/6 432/3/6 435/3/6
f 435/3/6 432/3/6 436/3/6
f 433/3/6 434/3/6 438/3/6
f 438/3/6 434/3/6 439/3/6
f 439/3/6 434/3/6 440/3/6
f 437/3/6 438/3/6 441/3/6
f 438/3/6 439/3/6 441/3/6
f 441/3/6 439/3/6 442/3/6
f 443/3/6 444/3/6 448/3/6
f 448/3/6 444/3/6 449/3/6
f 446/3/6 447/3/6 450/3/6
f 445/3/6 446/3/6 450/3/6
f 450/3/6 447/3/6 451/3/6
f 451/3/6 447/3/6 452/3/6
f 452/3/6 447/3/6 453/3/6
f 450/3/6 451/3/6 455/3/6
f 455/3/6 451/3/6 456/3/6
f 453/3/6 454/3/6 457/3/6
f 452/3/6 453/3/6 457/3/6
f 457/3/6 454/3/6 458/3/6
f 458/3/6 454/3/6 459/3/6
f 457/3/6 458/3/6 462/3/6
f 462/3/6 458/3/6 463/3/6
f 460/3/6 461/3/6 464/3/6
f 464/3/6 461/3/6 465/3/6
f 466/2/6 467/2/6 468/2/6
f 468/2/6 467/2/6 469/2/6
f 470/3/6 471/3/6 472/3/6
f 470/3/6 472/3/6 473/3/6
f 473/3/6 472/3/6 474/3/6
f 475/3/6 476/3/6 477/3/6
f 477/3/6 476/3/6 478/3/6
f 478/3/6 476/3/6 479/3/6
f 479/3/6 476/3/6 480/3/6
f 478/3/6 479/3/6 481/3/6
f 481/3/6 479/3/6 482/3/6
f 483/3/6 484/3/6 485/3/6
f 485/3/6 484/3/6 486/3/6
f 486/3/6 484/3/6 487/3/6
f 487/3/6 484/3/6 488/3/6
f 489/3/6 490/3/6 491/3/6
f 491/3/6 490/3/6 492/3/6
f 491/2/6 492/2/6 493/2/6
f 493/2/6 492/2/6 494/2/6
f 495/3/6 496/3/6 497/3/6
f 497/3/6 496/3/6 498/3/6
